<mxfile host="app.diagrams.net" modified="2024-06-26T11:42:45.294Z" agent="Mozilla/5.0 (Windows NT 10.0; Win64; x64) AppleWebKit/537.36 (KHTML, like Gecko) Chrome/126.0.0.0 Safari/537.36" etag="17X4q9cj6zZXGm9jjEN4" version="24.6.3" type="device">
  <diagram name="Page-1" id="UmdW6yPdeXQG5P8daHVU">
    <mxGraphModel dx="613" dy="828" grid="0" gridSize="10" guides="1" tooltips="1" connect="1" arrows="1" fold="1" page="0" pageScale="1" pageWidth="850" pageHeight="1100" math="0" shadow="0">
      <root>
        <mxCell id="0" />
        <mxCell id="1" parent="0" />
        <mxCell id="9d2pMUnsxmESS4CG235y-1" value="Company" style="rounded=1;whiteSpace=wrap;html=1;" vertex="1" parent="1">
          <mxGeometry x="128" y="64" width="90" height="37" as="geometry" />
        </mxCell>
        <mxCell id="9d2pMUnsxmESS4CG235y-2" value="Project" style="rounded=1;whiteSpace=wrap;html=1;" vertex="1" parent="1">
          <mxGeometry x="380" y="164" width="90" height="37" as="geometry" />
        </mxCell>
        <mxCell id="9d2pMUnsxmESS4CG235y-3" value="Service" style="rounded=1;whiteSpace=wrap;html=1;" vertex="1" parent="1">
          <mxGeometry x="64" y="246" width="90" height="37" as="geometry" />
        </mxCell>
        <mxCell id="9d2pMUnsxmESS4CG235y-4" value="TeamMember" style="rounded=1;whiteSpace=wrap;html=1;" vertex="1" parent="1">
          <mxGeometry x="362" y="315" width="90" height="37" as="geometry" />
        </mxCell>
        <mxCell id="9d2pMUnsxmESS4CG235y-6" value="description" style="ellipse;whiteSpace=wrap;html=1;" vertex="1" parent="1">
          <mxGeometry x="49" y="-109" width="78" height="30" as="geometry" />
        </mxCell>
        <mxCell id="9d2pMUnsxmESS4CG235y-7" value="history" style="ellipse;whiteSpace=wrap;html=1;" vertex="1" parent="1">
          <mxGeometry x="100" y="-84" width="78" height="30" as="geometry" />
        </mxCell>
      </root>
    </mxGraphModel>
  </diagram>
</mxfile>
